<?xml version="1.0" encoding="utf-8"?>
<!-- Generator: Adobe Illustrator 27.3.1, SVG Export Plug-In . SVG Version: 6.00 Build 0)  -->
<svg version="1.1" id="Layer_1" xmlns="http://www.w3.org/2000/svg" xmlns:xlink="http://www.w3.org/1999/xlink" x="0px" y="0px"
	 viewBox="0 0 200 200" style="enable-background:new 0 0 200 200;" xml:space="preserve">
<style type="text/css">
	.st0{fill:#FBD304;}
	.st1{fill:#51EBF4;}
	.st2{fill:#29736D;}
	.st3{fill:#FF7102;}
	.st4{fill:#E2F7FB;}
	.st5{fill:none;stroke:#29736D;stroke-linecap:round;stroke-miterlimit:10;}
	.st6{fill:#FFEFAF;}
	.st7{fill:none;stroke:#002140;stroke-linecap:round;stroke-linejoin:round;}
	.st8{opacity:0.9;fill:#E2F7FB;enable-background:new    ;}
</style>
<path class="st0" d="M148.9,88.1c10.9-19.8,3.8-44.7-15.9-55.5c-19.7-10.8-44.5-3.5-55.4,16.3c-10.9,19.8-3.8,44.7,15.9,55.5
	C113.2,115.2,138,107.9,148.9,88.1z"/>
<path class="st1" d="M113.4,100.9c17.8,0,32.3-14.5,32.3-32.3c0-17.8-14.5-32.3-32.3-32.3c-17.8,0-32.3,14.5-32.3,32.3
	C81.1,86.4,95.6,100.9,113.4,100.9z"/>
<path class="st2" d="M113.5,71.3l9.5-8.4c0,0-1.1-0.7-2.2-0.7c-1.2,0-10.3,0.3-10.3,0.3l-0.3-4c0,0-4.8,10.2-5,11.1
	c-0.2,0.9,0.3,2.1,0.3,2.1l2.6,8.3l0.6,1.4l8.1,5.6l-2.5-7.8l2.5-5L113.5,71.3L113.5,71.3z"/>
<path class="st2" d="M100.5,46.9l9.7,10.7l-3.4,10.3L100.5,46.9z"/>
<path class="st3" d="M86.4,99.3l-25,45.6c0,0-3.3,8.3,4.1,12.4c7.4,4.1,12.3-4,12.6-4.6c0.3-0.6,19.4-35.2,19.4-35.2"/>
<path class="st4" d="M126.3,30c0,0,5.3,2.2,7.2,3.3c2,1.1,5.6,3.6,5.6,3.6s4-6.8-2.3-10.3C130.4,23.2,127.2,28.8,126.3,30L126.3,30z
	"/>
<path class="st4" d="M83.3,97c0,0-0.8-0.1-1.4,0.9c-0.5,1-0.6,2.6-0.6,2.6s-1.5,0.6-2.1,1.8c-0.6,1.2-1.2,5.9,9.7,12.3
	c11,6.4,14,0.7,14.1,0.3c0.1-0.3,0-2.4,0-2.4s2.8-1.5,2.1-3.7c0,0-8.2-2.2-11.9-4.5C89.5,102.2,83.3,96.9,83.3,97L83.3,97z"/>
<path class="st4" d="M60.5,151.5c0,0-2,0.6-2.4,1.5c-0.4,0.9-0.2,4.7,5.1,7.5c5.3,2.8,9.1,1.8,9.4,0.2c0.4-1.6-0.3-3-0.3-3
	s-4.3,1.1-7.1-0.6C62.6,155.6,60.5,151.5,60.5,151.5L60.5,151.5z"/>
<path class="st0" d="M63.8,160.9L59,157c0,0-2.4,1-4,3.3c-1.5,2.3-2.2,7.5,2.7,10.6c5.7,3.3,9.5-1.8,10.6-3.8
	c1.1-2.1,0.6-4.6,0.6-4.6S65.2,161.8,63.8,160.9L63.8,160.9z"/>
<path class="st5" d="M95.5,41.4l14.5,16l-5.3,13l3.6,10.7l8,5.7l-7.1,8.5v5.3"/>
<path class="st5" d="M106.2,75.7l-5.9,2.1L91.1,76l-7.7,4.4"/>
<path class="st5" d="M113.4,71.2l10.1-9.1l3-8.6l13.3-3.6"/>
<path class="st5" d="M110.1,57.4l0.3,11.3l8.9,7.7l11.9,9.5l8.6,0.9"/>
<path class="st5" d="M116.6,87l-2.7-8l3-4.7"/>
<path class="st5" d="M123.4,62.1l-13.1,0.3"/>
<path class="st6" d="M141.8,39.9c-0.2,2.1,1.7,5.9,3.2,8.7c4.4,8,6.2,17.4,5,26.4c-0.2,1.4-0.4,2.8-0.9,4.2
	c-0.6,1.7-1.6,3.3-2.5,4.9c-1,1.7-2,3.4-2.5,5.3c-0.6,1.9-0.7,3.9,0,5.8c0,0,12.2-9.9,9.1-35.6C150.9,50.3,143.8,41.2,141.8,39.9
	L141.8,39.9z"/>
<path class="st7" d="M113.2,109.5c22.6,0,40.8-18.3,40.8-40.8s-18.3-40.8-40.8-40.8c-22.6,0-40.8,18.3-40.8,40.8
	S90.7,109.5,113.2,109.5z"/>
<path class="st7" d="M113.4,100.9c17.9,0,32.4-14.5,32.4-32.4c0-17.9-14.5-32.4-32.4-32.4C95.5,36,81,50.6,81,68.5
	C81,86.4,95.5,100.9,113.4,100.9z"/>
<path class="st8" d="M122,52.3c6.4,5,9.1,9.3,9.9,18.1c0.6,2.1,1,5.5,4.1,5.9c3.1,0.4,3.8-3.8,3.8-3.8c1.7-10.5-2.4-19.8-11.5-26.3
	c-2.2-1.6-5.7-3.6-8.4-0.2C117.2,49.4,122,52.3,122,52.3L122,52.3z"/>
<path class="st7" d="M126.2,29.8c0.1-0.2,0.2-0.3,0.2-0.5c2-3.6,6.5-4.9,10.1-3c3.6,2,4.9,6.5,3,10.1c-0.1,0.2-0.2,0.4-0.4,0.6"/>
<path class="st7" d="M105.1,108.8c0.3,0.9,0.3,1.7-0.1,2.3c-1.4,2.6-7.9,1.8-14.4-1.8c-6.5-3.6-10.6-8.6-9.2-11.2
	c0.4-0.6,1-1.1,1.9-1.3"/>
<path class="st7" d="M103,112.6c0.2,1,0.2,1.9-0.2,2.6c-1.6,3-8.3,2.5-14.8-1.1c-6.5-3.6-10.5-8.9-8.8-11.9c0.4-0.8,1.1-1.3,2.1-1.6
	"/>
<path class="st7" d="M80.9,109c-3.2,5.8-17.4,31.7-19.3,35.1c-2.8,5-0.6,10.7,3.7,13.1c4.3,2.3,10,0.6,12.5-3.9
	c2.2-4.1,16.5-30.1,19.7-35.8"/>
<path class="st7" d="M72.4,157.8c0.6,1.1,0.7,2.2,0.2,3c-1.1,2-5.2,1.9-9.2-0.3c-4-2.2-6.3-5.6-5.1-7.6c0.4-0.8,1.3-1.2,2.4-1.4"/>
<path class="st7" d="M69.1,162.4c0.3,1.7,0.1,3.6-0.9,5.3c-2.1,3.8-6.8,5.3-10.4,3.3c-3.7-2-4.9-6.7-2.8-10.5
	c0.9-1.6,2.2-2.8,3.7-3.4"/>
<path class="st8" d="M87.2,60.8c-0.2,1.8,0.1,3.7,1.4,5c1.3,1.3,3.5,1.6,4.8,0.4c0.8-0.8,1.2-1.9,1.3-3.1c0.1-1.1,0-2.3,0.2-3.4
	c0.3-1.3,0.9-2.5,1.2-3.8c0.3-1.3,0.2-2.8-0.8-3.7c-1.1-0.9-2.9-0.6-4,0.2C89.1,54.2,87.5,58.2,87.2,60.8L87.2,60.8z"/>
</svg>
